<?xml version="1.0" encoding="UTF-8" standalone="no"?>
<!-- Created with Inkscape (http://www.inkscape.org/) -->

<svg
   width="210mm"
   height="297mm"
   viewBox="0 0 210 297"
   version="1.1"
   id="svg1"
   inkscape:version="1.4.3 (0d15f750, 2025-12-25)"
   sodipodi:docname="Guillotine A Gift For You From.svg"
   xmlns:inkscape="http://www.inkscape.org/namespaces/inkscape"
   xmlns:sodipodi="http://sodipodi.sourceforge.net/DTD/sodipodi-0.dtd"
   xmlns="http://www.w3.org/2000/svg"
   xmlns:svg="http://www.w3.org/2000/svg">
  <sodipodi:namedview
     id="namedview1"
     pagecolor="#ffffff"
     bordercolor="#000000"
     borderopacity="0.25"
     inkscape:showpageshadow="2"
     inkscape:pageopacity="0.0"
     inkscape:pagecheckerboard="0"
     inkscape:deskcolor="#d1d1d1"
     inkscape:document-units="mm"
     inkscape:zoom="2.6003657"
     inkscape:cx="343.7978"
     inkscape:cy="640.10228"
     inkscape:window-width="1728"
     inkscape:window-height="966"
     inkscape:window-x="1922"
     inkscape:window-y="153"
     inkscape:window-maximized="0"
     inkscape:current-layer="layer1" />
  <defs
     id="defs1" />
  <g
     inkscape:label="Layer 1"
     inkscape:groupmode="layer"
     id="layer1">
    <g
       id="text3"
       style="font-size:2.78148px;line-height:0.7;font-family:'Cyborg Punk';-inkscape-font-specification:'Cyborg Punk';text-align:center;letter-spacing:0px;word-spacing:0px;text-anchor:middle;fill:#ff0000;stroke-width:0.0417223"
       aria-label="A gift&#10;for you&#10;from"
       transform="matrix(-1,0,0,1,463.35659,92.350117)">
      <path
         style="font-family:Copperplate;-inkscape-font-specification:Copperplate"
         d="m 363.27767,65.44345 -0.23364,-0.517355 -0.26146,0.517355 z m -1.04861,0.517355 q 0.0362,-0.0056 0.0556,-0.03616 0.0222,-0.0306 0.0417,-0.06954 l 0.51457,-1.081996 q 0.0195,-0.03616 0.0334,-0.06676 0.0167,-0.0306 0.0167,-0.05285 0,-0.02782 -0.0195,-0.03894 -0.0195,-0.01113 -0.0417,-0.01669 v -0.05007 h 0.47007 v 0.05007 q -0.0195,0.0056 -0.0389,0.01669 -0.0195,0.0083 -0.0195,0.03894 0,0.02225 0.008,0.0445 0.0111,0.02225 0.0306,0.05841 l 0.57854,1.132063 q 0.0139,0.0306 0.0362,0.0445 0.025,0.01391 0.0556,0.02781 v 0.05007 h -0.48954 v -0.05007 q 0.0111,0 0.0278,-0.0083 0.0167,-0.0083 0.0167,-0.02503 0,-0.02781 -0.0223,-0.07232 l -0.10569,-0.20583 h -0.67868 l -0.10014,0.197486 q -0.0278,0.05841 -0.0278,0.08344 0,0.0306 0.0528,0.0306 v 0.05007 h -0.39497 z m 3.95526,-0.77047 -0.0334,-0.01947 q 0.006,-0.02782 0.006,-0.0306 0,-0.02503 -0.0362,-0.05285 -0.0362,-0.0306 -0.0946,-0.05563 -0.0584,-0.02503 -0.13351,-0.03894 -0.0723,-0.01669 -0.14742,-0.01669 -0.10292,0 -0.19471,0.02503 -0.0918,0.02225 -0.16132,0.0751 -0.0695,0.05007 -0.11126,0.130729 -0.0417,0.08066 -0.0417,0.197485 0,0.116822 0.0445,0.197485 0.0445,0.07788 0.11404,0.127948 0.0723,0.04729 0.15855,0.06954 0.0862,0.02225 0.16688,0.02225 0.11961,0 0.2253,-0.01669 0.10848,-0.01669 0.19749,-0.06397 v -0.175233 h -0.28649 q -0.0306,0 -0.0528,0.01391 -0.0223,0.01113 -0.0278,0.0445 h -0.0501 v -0.286492 h 0.0501 q 0.006,0.02781 0.0278,0.03616 0.0222,0.0083 0.0528,0.0083 h 0.54517 v 0.05007 q -0.025,0.01113 -0.0334,0.02503 -0.008,0.01391 -0.008,0.04172 v 0.26424 q 0,0.02503 0.006,0.03616 0.008,0.0083 0.0362,0.01947 v 0.03338 q -0.025,0.01669 -0.0807,0.04729 -0.0528,0.02781 -0.13629,0.05563 -0.0807,0.02782 -0.18914,0.04729 -0.10848,0.01669 -0.24199,0.01669 -0.18079,0 -0.32821,-0.03894 -0.14464,-0.04172 -0.24755,-0.122386 -0.10014,-0.08066 -0.15577,-0.194703 -0.0528,-0.116822 -0.0528,-0.264241 0,-0.147418 0.0528,-0.261459 0.0556,-0.116822 0.15577,-0.197485 0.10291,-0.08344 0.24755,-0.125167 0.14742,-0.0445 0.32821,-0.0445 0.10848,0 0.19192,0.01947 0.0835,0.01947 0.14464,0.04172 0.064,0.02225 0.10292,0.04172 0.0389,0.01947 0.0584,0.01947 0.0222,0 0.0334,-0.0028 0.0111,-0.0056 0.0278,-0.01947 l 0.0334,0.01669 z m 0.63974,0.77047 q 0.0445,0 0.0612,-0.0083 0.0167,-0.01113 0.0167,-0.03338 v -1.040274 q 0,-0.02225 -0.0167,-0.0306 -0.0167,-0.01113 -0.0612,-0.01113 v -0.05007 h 0.42279 v 0.05007 q -0.0779,0 -0.0779,0.04172 v 1.040274 q 0,0.04172 0.0779,0.04172 v 0.05007 h -0.42279 z m 2.04995,-0.929014 q 0,-0.01391 -0.0195,-0.02503 -0.0195,-0.01391 -0.0668,-0.01391 h -0.75378 v 0.294837 h 0.48954 q 0.0473,0 0.0584,-0.0083 0.0111,-0.01113 0.0139,-0.03338 h 0.0501 v 0.292055 h -0.0501 q -0.003,-0.02225 -0.0139,-0.03338 -0.0111,-0.01113 -0.0584,-0.01113 h -0.48954 v 0.425566 q 0,0.02225 0.0195,0.03338 0.0195,0.0083 0.0445,0.0083 v 0.05007 h -0.38384 v -0.05007 q 0.0528,0 0.0528,-0.04172 v -1.040274 q 0,-0.04172 -0.0584,-0.04172 v -0.05007 h 1.07922 q 0.0473,0 0.0668,-0.01391 0.0195,-0.01391 0.0195,-0.03616 h 0.0501 v 0.294837 z m 0.69259,0.929014 q 0.0139,0 0.0278,-0.0083 0.0139,-0.01113 0.0139,-0.03338 V 64.99285 h -0.36159 q -0.0222,0 -0.0417,0.01113 -0.0195,0.01113 -0.0195,0.03616 h -0.0501 v -0.31987 h 0.0501 q 0,0.03894 0.0195,0.05285 0.0195,0.01391 0.0417,0.01391 h 0.99021 q 0.0222,0 0.0417,-0.01391 0.0195,-0.01391 0.0195,-0.05285 h 0.0501 v 0.31987 h -0.0501 q 0,-0.02503 -0.0195,-0.03616 -0.0195,-0.01113 -0.0417,-0.01113 h -0.36159 v 0.926233 q 0,0.04172 0.0501,0.04172 v 0.05007 h -0.35881 z"
         id="path153" />
      <path
         style="font-family:Copperplate;-inkscape-font-specification:Copperplate"
         d="m 362.23045,67.046831 q 0,-0.01391 -0.0195,-0.02503 -0.0195,-0.01391 -0.0668,-0.01391 h -0.75378 v 0.294836 h 0.48954 q 0.0473,0 0.0584,-0.0083 0.0111,-0.01113 0.0139,-0.03338 h 0.0501 v 0.292056 h -0.0501 q -0.003,-0.02225 -0.0139,-0.03338 -0.0111,-0.01113 -0.0584,-0.01113 h -0.48954 v 0.425566 q 0,0.02225 0.0195,0.03338 0.0195,0.0083 0.0445,0.0083 v 0.05007 h -0.38384 v -0.05007 q 0.0529,0 0.0529,-0.04172 V 66.89385 q 0,-0.04172 -0.0584,-0.04172 v -0.05007 h 1.07921 q 0.0473,0 0.0668,-0.01391 0.0195,-0.01391 0.0195,-0.03616 h 0.0501 v 0.294837 z m 1.0208,-0.05563 q -0.089,0 -0.17523,0.0306 -0.0835,0.02781 -0.1502,0.08344 -0.0668,0.05285 -0.10848,0.13073 -0.0389,0.07788 -0.0389,0.178015 0,0.100133 0.0389,0.178014 0.0417,0.07788 0.10848,0.133511 0.0668,0.05285 0.1502,0.08345 0.0862,0.02781 0.17523,0.02781 0.089,0 0.17245,-0.02781 0.0862,-0.0306 0.15298,-0.08345 0.0668,-0.05563 0.1057,-0.133511 0.0417,-0.07788 0.0417,-0.178014 0,-0.100134 -0.0417,-0.178015 -0.0389,-0.07788 -0.1057,-0.13073 -0.0668,-0.05563 -0.15298,-0.08344 -0.0834,-0.0306 -0.17245,-0.0306 z m 0,-0.20583 q 0.15298,0 0.28649,0.03894 0.13629,0.03894 0.23643,0.116822 0.10013,0.07788 0.15854,0.197485 0.0584,0.116822 0.0584,0.275367 0,0.158544 -0.0584,0.278148 -0.0584,0.116822 -0.15854,0.194703 -0.10014,0.07788 -0.23643,0.114041 -0.13351,0.03338 -0.28649,0.03338 -0.15298,0 -0.28927,-0.03338 -0.13352,-0.03616 -0.23365,-0.114041 -0.10013,-0.07788 -0.15854,-0.194703 -0.0584,-0.119604 -0.0584,-0.278148 0,-0.158545 0.0584,-0.275367 0.0584,-0.119604 0.15854,-0.197485 0.10013,-0.07788 0.23365,-0.116822 0.13629,-0.03894 0.28927,-0.03894 z m 1.83021,0.54517 q 0.27259,0 0.27259,-0.172452 0,-0.06954 -0.0668,-0.108477 -0.064,-0.04172 -0.20583,-0.04172 h -0.43947 v 0.322651 z m 0.006,-0.528481 q 0.24755,0 0.38662,0.08344 0.13908,0.08066 0.13908,0.278148 0,0.0751 -0.0278,0.133511 -0.0278,0.05841 -0.0751,0.102915 -0.0445,0.04172 -0.10013,0.06954 -0.0556,0.02503 -0.11404,0.03894 l 0.27258,0.397752 q 0.0222,0.0306 0.0473,0.04729 0.0278,0.01391 0.0584,0.02225 v 0.05007 h -0.42557 v -0.05007 q 0.0362,0 0.0362,-0.02503 0,-0.02782 -0.0417,-0.08623 l -0.21974,-0.328214 h -0.38662 v 0.397751 q 0,0.02225 0.0167,0.03338 0.0195,0.0083 0.0362,0.0083 v 0.05007 h -0.36994 v -0.05007 q 0.0501,0 0.0501,-0.04172 V 66.89385 q 0,-0.04172 -0.0501,-0.04172 v -0.05007 z m 1.73008,0.09735 q -0.0195,-0.02503 -0.0473,-0.03616 -0.0278,-0.01113 -0.0528,-0.01113 v -0.05007 h 0.45895 v 0.05007 q -0.0139,0 -0.0306,0.01113 -0.0167,0.0083 -0.0167,0.02503 0,0.01669 0.0111,0.0306 0.0111,0.01391 0.025,0.03338 l 0.28093,0.367155 0.24755,-0.344903 q 0.025,-0.03616 0.0362,-0.05285 0.0139,-0.01947 0.0139,-0.03616 0,-0.02225 -0.0139,-0.02781 -0.0139,-0.0056 -0.0278,-0.0056 v -0.05007 h 0.42557 v 0.05007 q -0.0334,0 -0.0751,0.03894 -0.0389,0.03616 -0.0695,0.0751 l -0.42557,0.550733 v 0.417222 q 0,0.04172 0.0528,0.04172 v 0.05007 h -0.36994 v -0.05007 q 0.0501,0 0.0501,-0.04172 v -0.428348 z m 2.22796,0.09179 q -0.089,0 -0.17523,0.0306 -0.0834,0.02781 -0.1502,0.08344 -0.0668,0.05285 -0.10848,0.13073 -0.0389,0.07788 -0.0389,0.178015 0,0.100133 0.0389,0.178014 0.0417,0.07788 0.10848,0.133511 0.0668,0.05285 0.1502,0.08345 0.0862,0.02781 0.17523,0.02781 0.089,0 0.17246,-0.02781 0.0862,-0.0306 0.15298,-0.08345 0.0667,-0.05563 0.10569,-0.133511 0.0417,-0.07788 0.0417,-0.178014 0,-0.100134 -0.0417,-0.178015 -0.0389,-0.07788 -0.10569,-0.13073 -0.0668,-0.05563 -0.15298,-0.08344 -0.0835,-0.0306 -0.17246,-0.0306 z m 0,-0.20583 q 0.15298,0 0.2865,0.03894 0.13629,0.03894 0.23642,0.116822 0.10013,0.07788 0.15855,0.197485 0.0584,0.116822 0.0584,0.275367 0,0.158544 -0.0584,0.278148 -0.0584,0.116822 -0.15855,0.194703 -0.10013,0.07788 -0.23642,0.114041 -0.13352,0.03338 -0.2865,0.03338 -0.15298,0 -0.28927,-0.03338 -0.13351,-0.03616 -0.23364,-0.114041 -0.10014,-0.07788 -0.15855,-0.194703 -0.0584,-0.119604 -0.0584,-0.278148 0,-0.158545 0.0584,-0.275367 0.0584,-0.119604 0.15855,-0.197485 0.10013,-0.07788 0.23364,-0.116822 0.13629,-0.03894 0.28927,-0.03894 z m 1.45472,0.06676 q -0.0612,0 -0.0612,0.04172 v 0.636959 q 0,0.133511 0.0974,0.214174 0.0974,0.08066 0.29762,0.08066 0.20026,0 0.29761,-0.08066 0.0974,-0.08066 0.0974,-0.214174 V 66.89385 q 0,-0.04172 -0.0695,-0.04172 v -0.05007 h 0.38662 v 0.05007 q -0.0612,0 -0.0612,0.04172 v 0.703714 q 0,0.08623 -0.0389,0.166889 -0.0389,0.07788 -0.1196,0.139074 -0.0779,0.06119 -0.20305,0.09735 -0.12239,0.03338 -0.28927,0.03338 -0.16689,0 -0.29206,-0.03338 -0.12239,-0.03616 -0.20305,-0.09735 -0.0779,-0.06119 -0.11682,-0.139074 -0.0389,-0.08066 -0.0389,-0.166889 V 66.89385 q 0,-0.02225 -0.0167,-0.0306 -0.0167,-0.01113 -0.064,-0.01113 v -0.05007 h 0.39775 z"
         id="path154" />
      <path
         style="font-family:Copperplate;-inkscape-font-specification:Copperplate"
         d="m 364.20113,69.061872 q 0,-0.01391 -0.0195,-0.02503 -0.0195,-0.01391 -0.0668,-0.01391 h -0.75378 v 0.294837 h 0.48954 q 0.0473,0 0.0584,-0.0083 0.0111,-0.01113 0.0139,-0.03338 h 0.0501 v 0.292055 h -0.0501 q -0.003,-0.02225 -0.0139,-0.03338 -0.0111,-0.01113 -0.0584,-0.01113 h -0.48954 v 0.425567 q 0,0.02225 0.0195,0.03338 0.0195,0.0083 0.0445,0.0083 v 0.05007 h -0.38384 v -0.05007 q 0.0529,0 0.0529,-0.04172 V 68.90889 q 0,-0.04172 -0.0584,-0.04172 V 68.8171 h 1.07921 q 0.0473,0 0.0668,-0.01391 0.0195,-0.01391 0.0195,-0.03616 h 0.0501 v 0.294837 z m 1.15153,0.283711 q 0.27258,0 0.27258,-0.172452 0,-0.06954 -0.0668,-0.108478 -0.064,-0.04172 -0.20583,-0.04172 h -0.43948 v 0.322652 z m 0.006,-0.528482 q 0.24755,0 0.38663,0.08345 0.13907,0.08066 0.13907,0.278148 0,0.0751 -0.0278,0.133511 -0.0278,0.05841 -0.0751,0.102915 -0.0445,0.04172 -0.10014,0.06954 -0.0556,0.02503 -0.11404,0.03894 l 0.27259,0.397752 q 0.0222,0.0306 0.0473,0.04728 0.0278,0.01391 0.0584,0.02225 v 0.05007 h -0.42556 v -0.05007 q 0.0362,0 0.0362,-0.02503 0,-0.02781 -0.0417,-0.08623 l -0.21973,-0.328215 h -0.38663 v 0.397752 q 0,0.02225 0.0167,0.03338 0.0195,0.0083 0.0362,0.0083 v 0.05007 h -0.36994 v -0.05007 q 0.0501,0 0.0501,-0.04172 V 68.90889 q 0,-0.04172 -0.0501,-0.04172 V 68.8171 Z m 1.56319,0.189141 q -0.089,0 -0.17523,0.0306 -0.0834,0.02782 -0.1502,0.08344 -0.0668,0.05285 -0.10848,0.130729 -0.0389,0.07788 -0.0389,0.178015 0,0.100133 0.0389,0.178015 0.0417,0.07788 0.10848,0.133511 0.0668,0.05285 0.1502,0.08344 0.0862,0.02781 0.17523,0.02781 0.089,0 0.17245,-0.02781 0.0862,-0.0306 0.15299,-0.08344 0.0668,-0.05563 0.10569,-0.133511 0.0417,-0.07788 0.0417,-0.178015 0,-0.100133 -0.0417,-0.178015 -0.0389,-0.07788 -0.10569,-0.130729 -0.0668,-0.05563 -0.15299,-0.08344 -0.0834,-0.0306 -0.17245,-0.0306 z m 0,-0.20583 q 0.15298,0 0.2865,0.03894 0.13629,0.03894 0.23642,0.116822 0.10013,0.07788 0.15855,0.197485 0.0584,0.116823 0.0584,0.275367 0,0.158544 -0.0584,0.278148 -0.0584,0.116822 -0.15855,0.194704 -0.10013,0.07788 -0.23642,0.11404 -0.13352,0.03338 -0.2865,0.03338 -0.15298,0 -0.28927,-0.03338 -0.13351,-0.03616 -0.23365,-0.11404 -0.10013,-0.07788 -0.15854,-0.194704 -0.0584,-0.119604 -0.0584,-0.278148 0,-0.158544 0.0584,-0.275367 0.0584,-0.119603 0.15854,-0.197485 0.10014,-0.07788 0.23365,-0.116822 0.13629,-0.03894 0.28927,-0.03894 z m 1.10981,1.190474 q 0.0139,-0.0028 0.0223,-0.01113 0.0111,-0.0083 0.0111,-0.03894 v -1.018021 q 0,-0.03894 -0.008,-0.04729 -0.006,-0.0083 -0.025,-0.0083 v -0.05007 h 0.38663 v 0.05007 q -0.0278,0 -0.0278,0.02503 0,0.01113 0.008,0.0306 0.0111,0.01669 0.0306,0.05007 l 0.33934,0.625833 0.34212,-0.623051 q 0.0195,-0.03338 0.0306,-0.05285 0.0111,-0.02225 0.0111,-0.0306 0,-0.02503 -0.0222,-0.02503 v -0.05007 h 0.39219 v 0.05007 q -0.0139,0 -0.0278,0.0083 -0.0111,0.0056 -0.0111,0.02782 v 1.045837 q 0,0.02225 0.0111,0.03338 0.0139,0.0083 0.0278,0.0083 v 0.05007 h -0.32265 v -0.05007 q 0.0584,0 0.0501,-0.04172 v -0.781596 h -0.006 l -0.47285,0.873385 h -0.0222 l -0.44782,-0.873385 h 0.003 -0.006 v 0.781596 q 0,0.04172 0.0473,0.04172 v 0.05007 h -0.31431 z"
         id="path164" />
    </g>
  </g>
</svg>
