<?xml version="1.0" encoding="UTF-8" standalone="no"?>
<!-- Created with Inkscape (http://www.inkscape.org/) -->

<svg
   width="210mm"
   height="297mm"
   viewBox="0 0 210 297"
   version="1.1"
   id="svg1"
   inkscape:version="1.4.3 (0d15f750, 2025-12-25)"
   sodipodi:docname="Guillotine SOAK logo.svg"
   xmlns:inkscape="http://www.inkscape.org/namespaces/inkscape"
   xmlns:sodipodi="http://sodipodi.sourceforge.net/DTD/sodipodi-0.dtd"
   xmlns="http://www.w3.org/2000/svg"
   xmlns:svg="http://www.w3.org/2000/svg">
  <sodipodi:namedview
     id="namedview1"
     pagecolor="#ffffff"
     bordercolor="#000000"
     borderopacity="0.25"
     inkscape:showpageshadow="2"
     inkscape:pageopacity="0.0"
     inkscape:pagecheckerboard="0"
     inkscape:deskcolor="#d1d1d1"
     inkscape:document-units="mm"
     inkscape:zoom="0.52410024"
     inkscape:cx="325.31944"
     inkscape:cy="590.53588"
     inkscape:window-width="1920"
     inkscape:window-height="1022"
     inkscape:window-x="0"
     inkscape:window-y="103"
     inkscape:window-maximized="0"
     inkscape:current-layer="layer1" />
  <defs
     id="defs1" />
  <g
     inkscape:label="Layer 1"
     inkscape:groupmode="layer"
     id="layer1">
    <path
       id="path61"
       style="fill:#ff0000;fill-opacity:1;fill-rule:evenodd;stroke:none;stroke-width:0.053622;stroke-linecap:round;stroke-linejoin:round;stroke-opacity:1"
       d="m 101.46101,165.19928 0.002,0.001 0.003,0.005 0.003,0.008 0.003,0.0111 0.005,0.031 0.004,0.0422 0.003,0.0528 0.003,0.0625 0.001,0.0717 2.2e-4,0.0801 -1.4e-4,0.11797 4.4e-4,0.0491 6.7e-4,0.0436 0.001,0.0388 0.003,0.0348 0.003,0.0315 0.005,0.029 0.005,0.0273 0.007,0.0263 0.008,0.0261 0.01,0.0266 0.0117,0.028 0.0137,0.03 0.0335,0.0693 0.0149,0.0294 0.0161,0.0294 0.0173,0.0296 0.0187,0.03 0.0202,0.0306 0.0219,0.0313 0.0237,0.0322 0.0257,0.0334 0.0578,0.0708 0.0673,0.0775 0.0781,0.0857 0.0899,0.0953 0.14592,0.15368 0.0626,0.0671 0.0563,0.0613 0.0505,0.0563 0.0453,0.0519 0.0405,0.0481 0.0363,0.0449 0.0324,0.0424 0.0292,0.0404 0.0263,0.0391 0.0241,0.0385 0.0222,0.0384 0.0209,0.039 0.0201,0.0403 0.0198,0.0421 0.0194,0.0458 0.0174,0.0486 0.0154,0.0509 0.0133,0.053 0.0113,0.0546 0.009,0.0559 0.007,0.0568 0.005,0.0574 0.003,0.0577 6.4e-4,0.0576 -0.001,0.0572 -0.004,0.0564 -0.006,0.0552 -0.008,0.0537 -0.0106,0.0518 -0.0129,0.0496 -0.005,0.0182 -0.005,0.0179 -0.005,0.0176 -0.004,0.0171 -0.004,0.0165 -0.003,0.0159 -0.003,0.0152 -0.003,0.0143 -0.002,0.0133 -0.002,0.0122 -10e-4,0.011 -6.7e-4,0.01 -2.8e-4,0.008 2.4e-4,0.007 6.7e-4,0.005 6.1e-4,0.002 6.7e-4,0.001 6.7e-4,0.003 -6.7e-4,0.003 -0.007,0.007 -0.0135,0.008 -0.0196,0.009 -0.056,0.0209 -0.0757,0.0233 -0.0922,0.0247 -0.10543,0.0253 -0.11554,0.0249 -0.12245,0.0235 -0.1014,0.0161 -0.1075,0.0128 -0.11275,0.01 -0.11717,0.006 -0.12073,0.003 -0.12344,4e-5 -0.12532,-0.003 -0.12635,-0.006 -0.12652,-0.009 -0.12586,-0.0119 -0.12435,-0.0147 -0.122,-0.0176 -0.11879,-0.0203 -0.11474,-0.023 -0.10985,-0.0257 -0.10412,-0.0283 -0.2194,-0.0643 -0.0679,-0.17619 -0.0194,-0.0516 -0.0177,-0.0494 -0.016,-0.0474 -0.0143,-0.0458 -0.0127,-0.0443 -0.0111,-0.043 -0.01,-0.0421 -0.008,-0.0414 -0.007,-0.0408 -0.005,-0.0406 -0.004,-0.0406 -0.003,-0.0408 -0.001,-0.0414 1e-5,-0.0421 10e-4,-0.043 0.003,-0.0443 0.004,-0.0448 0.005,-0.0447 0.007,-0.0444 0.008,-0.044 0.01,-0.0434 0.0113,-0.0426 0.0125,-0.0417 0.0138,-0.0405 0.0149,-0.0391 0.016,-0.0375 0.017,-0.0358 0.018,-0.0339 0.0189,-0.0318 0.0197,-0.0294 0.0204,-0.0269 0.0212,-0.0243 0.0151,-0.0159 0.0135,-0.0137 0.0121,-0.0115 0.005,-0.005 0.005,-0.005 0.005,-0.004 0.005,-0.003 0.005,-0.003 0.004,-0.002 0.004,-0.001 0.004,-6.7e-4 0.004,-2.7e-4 0.003,3.1e-4 0.003,6.7e-4 0.003,0.001 0.003,0.002 0.003,0.003 0.003,0.003 0.003,0.004 0.003,0.005 0.003,0.005 0.003,0.006 0.003,0.007 0.008,0.0149 0.008,0.0174 0.009,0.02 0.0225,0.0452 0.0265,0.043 0.0302,0.0407 0.0338,0.0383 0.0372,0.0357 0.0404,0.0331 0.0434,0.0304 0.0463,0.0276 0.049,0.0247 0.0515,0.0217 0.0539,0.0186 0.056,0.0154 0.058,0.0121 0.0599,0.009 0.0615,0.005 0.063,0.001 0.0511,-4.9e-4 0.0448,-10e-4 0.0387,-0.003 0.0171,-0.001 0.0156,-0.002 0.0141,-0.002 0.0126,-0.003 0.0112,-0.003 0.01,-0.003 0.008,-0.004 0.007,-0.005 0.005,-0.005 0.004,-0.005 0.003,-0.006 0.001,-0.007 9e-5,-0.007 -0.001,-0.008 -0.003,-0.008 -0.004,-0.009 -0.005,-0.01 -0.007,-0.0105 -0.008,-0.0113 -0.009,-0.012 -0.0212,-0.0265 -0.026,-0.0298 -0.0306,-0.0334 -0.0417,-0.0456 -0.0376,-0.0436 -0.0336,-0.0421 -0.03,-0.0411 -0.0265,-0.0406 -0.0231,-0.0407 -0.02,-0.0413 -0.017,-0.0424 -0.0143,-0.044 -0.0117,-0.0462 -0.009,-0.0489 -0.007,-0.052 -0.005,-0.0558 -0.003,-0.06 -0.002,-0.0648 -2.3e-4,-0.07 10e-4,-0.0662 0.002,-0.0623 0.004,-0.059 0.005,-0.056 0.007,-0.0533 0.009,-0.0512 0.0107,-0.0494 0.0127,-0.048 0.0148,-0.0471 0.0171,-0.0464 0.0194,-0.0463 0.0219,-0.0465 0.0245,-0.0471 0.0272,-0.0481 0.03,-0.0495 0.033,-0.0514 0.0234,-0.034 0.0275,-0.0371 0.0309,-0.0395 0.0336,-0.0413 0.0356,-0.0422 0.0369,-0.0424 0.0375,-0.042 0.0375,-0.0407 0.0367,-0.0387 0.0353,-0.0359 0.0331,-0.0324 0.0303,-0.0282 0.0267,-0.0232 0.0225,-0.0175 0.009,-0.007 0.008,-0.005 0.007,-0.003 0.005,-0.001 z m -0.0741,-5.65553 -0.0687,0.2651 -0.0393,0.14107 -0.0455,0.14211 -0.0522,0.14418 -0.0605,0.14779 -0.0682,0.15193 -0.0775,0.15813 -0.0868,0.16485 -0.0977,0.17312 -0.108,0.1819 -0.11989,0.19223 -0.13229,0.20361 -0.14521,0.21652 -0.15865,0.23048 -0.17311,0.24546 -0.39223,0.54002 -0.26665,0.36639 -0.22479,0.31833 -0.18707,0.27698 -0.15296,0.2434 h 5.2e-4 l -0.12196,0.21187 -0.0532,0.10077 -0.0475,0.0971 -0.0429,0.0941 -0.0382,0.092 -0.0341,0.0909 -0.031,0.0904 -0.0682,0.22944 -0.0537,0.22635 -0.0403,0.22169 -0.0263,0.21756 -0.0124,0.21342 0.001,0.20826 0.0155,0.20308 0.0289,0.19741 0.0424,0.19223 0.0563,0.18604 0.0698,0.17983 0.0832,0.17312 0.0972,0.1664 0.11007,0.15916 0.1235,0.15193 0.12558,0.13229 0.009,0.01 0.004,0.005 0.0341,0.032 0.0424,0.0377 0.0956,0.0811 0.10542,0.0842 0.10748,0.0822 0.1018,0.0739 0.0878,0.0594 0.0367,0.0232 0.0305,0.0171 0.0227,0.0109 0.009,0.003 0.007,5.1e-4 h 10e-4 l 0.001,-0.001 5.2e-4,-5.2e-4 v -0.001 -0.002 l -5.2e-4,-0.003 -0.001,-0.006 -0.003,-0.007 -0.003,-0.009 -0.004,-0.01 -0.005,-0.0119 -0.006,-0.0124 -0.007,-0.0134 -0.008,-0.015 -0.008,-0.0155 -0.009,-0.016 -0.0103,-0.017 -0.01,-0.0176 -0.0108,-0.0181 -0.0264,-0.0444 -0.0248,-0.0439 -0.0232,-0.0439 -0.0217,-0.0429 -0.0202,-0.0434 -0.0186,-0.0434 -0.0176,-0.0434 -0.0165,-0.0439 -0.015,-0.0444 -0.0139,-0.0455 -0.0129,-0.0465 -0.0119,-0.047 -0.0114,-0.0491 -0.0103,-0.0501 -0.009,-0.0522 -0.009,-0.0543 -0.015,-0.13229 -0.005,-0.13332 0.005,-0.13436 0.0145,-0.13539 0.0253,-0.13746 0.0351,-0.13901 0.0455,-0.14108 0.0563,-0.14366 0.0656,-0.14573 0.0775,-0.14883 0.0884,-0.15141 0.0987,-0.15451 0.10956,-0.15813 0.1204,-0.16123 0.13178,-0.16537 0.14262,-0.16949 0.16744,-0.19379 0.13694,-0.16123 0.11007,-0.13333 0.0868,-0.11007 0.0687,-0.092 0.0527,-0.078 0.0413,-0.0698 0.0331,-0.0656 0.016,-0.0362 0.014,-0.0362 0.0124,-0.0357 0.0103,-0.0351 0.009,-0.0351 0.007,-0.0346 0.005,-0.0341 0.003,-0.0336 -0.004,-0.0114 5.2e-4,-0.0176 -5.2e-4,-0.0325 -0.002,-0.0315 -0.004,-0.0315 -0.005,-0.0305 -0.007,-0.03 -0.009,-0.0289 -0.0103,-0.0279 -0.0119,-0.0274 -0.0134,-0.0258 -0.015,-0.0253 -0.0165,-0.0243 -0.0186,-0.0232 -0.0196,-0.0222 -0.0212,-0.0207 -0.0227,-0.0202 -0.0238,-0.0181 -0.0258,-0.0176 -0.0269,-0.0155 -0.0284,-0.0145 -0.03,-0.0129 -0.031,-0.0119 -0.0326,-0.01 -0.0336,-0.008 -0.0217,-0.005 -0.01,-0.003 -0.009,-0.003 -0.008,-0.003 -0.007,-0.003 -0.006,-0.003 -0.005,-0.003 -0.005,-0.003 -0.004,-0.003 -0.003,-0.003 -0.002,-0.003 -0.001,-0.003 -5.2e-4,-0.004 5.2e-4,-0.004 0.001,-0.004 0.002,-0.004 0.003,-0.005 0.004,-0.005 0.005,-0.005 0.005,-0.005 0.007,-0.005 0.007,-0.005 0.008,-0.005 0.009,-0.006 0.01,-0.006 0.0227,-0.0129 0.0263,-0.014 0.0305,-0.0155 0.0222,-0.0114 0.0217,-0.01 0.0217,-0.009 0.0212,-0.008 0.0212,-0.007 0.0222,-0.006 0.0227,-0.005 0.0238,-0.004 0.0258,-0.003 0.0279,-0.003 0.03,-0.003 0.0326,-0.002 0.0362,-10e-4 0.0393,-5.2e-4 0.0904,-5.1e-4 0.093,5.1e-4 0.0775,0.002 0.0336,0.002 0.031,0.003 0.0279,0.003 0.0274,0.004 0.0253,0.005 0.0248,0.006 0.0243,0.007 0.0248,0.008 0.0253,0.0103 0.0269,0.0109 0.0584,0.0258 0.0429,0.0212 0.0429,0.0243 0.0434,0.0269 0.0424,0.0295 0.0424,0.0315 0.0419,0.0336 0.0408,0.0357 0.0393,0.0367 0.0382,0.0388 0.0367,0.0393 0.0346,0.0408 0.0326,0.0408 0.0305,0.0419 0.0279,0.0419 0.0248,0.0419 0.0222,0.0413 0.0279,0.061 0.0253,0.061 0.0212,0.0615 0.0186,0.062 0.015,0.0625 0.0114,0.0636 0.008,0.0641 0.005,0.0656 0.002,0.0662 -10e-4,0.0677 -0.005,0.0692 -0.008,0.0713 -0.0114,0.0723 -0.0145,0.0744 -0.0186,0.0765 -0.0212,0.0785 -0.0558,0.19792 h 0.31419 l 0.0956,0.001 0.0775,0.002 0.0336,0.002 0.031,0.003 0.0279,0.003 0.0269,0.004 0.0248,0.005 0.0243,0.006 0.0238,0.007 0.0238,0.008 0.0243,0.0103 0.0253,0.0114 0.0563,0.0263 0.0181,0.009 0.0176,0.009 0.017,0.009 0.016,0.009 0.0155,0.009 0.0145,0.009 0.0129,0.009 0.0124,0.008 0.0109,0.008 0.01,0.008 0.008,0.007 0.007,0.007 0.005,0.006 0.003,0.005 0.001,0.003 5.2e-4,0.002 v 0.002 l -5.2e-4,0.002 -5.1e-4,0.002 -10e-4,0.002 -0.001,0.002 -0.001,0.002 -0.002,0.002 -0.002,0.002 -0.005,0.005 -0.006,0.005 -0.007,0.005 -0.008,0.005 -0.009,0.005 -0.009,0.005 -0.01,0.005 -0.0103,0.005 -0.0109,0.005 -0.0119,0.005 -0.0124,0.005 -0.0119,0.005 -0.0124,0.005 -0.0284,0.0103 -0.0274,0.0108 -0.0243,0.0109 -0.0233,0.0119 -0.0207,0.0124 -0.0196,0.0129 -0.0181,0.0139 -0.0165,0.0155 -0.0155,0.0165 -0.0145,0.0176 -0.014,0.0196 -0.0129,0.0212 -0.0124,0.0227 -0.0124,0.0248 -0.0114,0.0269 -0.0119,0.0294 -0.0155,0.045 -0.007,0.0222 -0.005,0.0212 -0.005,0.0217 -0.003,0.0212 -0.003,0.0212 -0.001,0.0212 -5.1e-4,0.0217 5.1e-4,0.0212 0.001,0.0217 0.003,0.0217 0.004,0.0227 0.005,0.0227 0.006,0.0222 0.007,0.0248 0.009,0.0243 0.01,0.0248 0.0114,0.0253 0.0124,0.0269 0.0289,0.0563 0.0346,0.061 0.0398,0.0646 0.046,0.0708 0.0522,0.076 0.0579,0.0827 0.0439,0.063 0.0398,0.0594 0.0362,0.0584 0.0331,0.0579 0.0295,0.0558 0.0264,0.0548 0.0233,0.0548 0.0202,0.0543 0.0176,0.0548 0.0145,0.0553 0.0119,0.0568 0.0103,0.0579 0.007,0.0594 0.005,0.062 0.003,0.0641 5.1e-4,0.0672 -5.1e-4,0.0506 -0.003,0.0512 -0.004,0.0512 -0.005,0.0517 -0.007,0.0522 -0.009,0.0522 -0.0103,0.0522 -0.0114,0.0517 -0.0134,0.0512 -0.0139,0.0512 -0.016,0.0501 -0.017,0.0491 -0.0181,0.0486 -0.0191,0.0475 -0.0207,0.046 -0.0217,0.045 -0.006,0.0119 -0.005,0.0114 -0.005,0.0109 -0.005,0.0109 -0.004,0.0103 -0.003,0.0103 -0.003,0.009 -0.003,0.008 -0.002,0.008 -0.001,0.007 -5.1e-4,0.006 -5.2e-4,0.005 5.2e-4,0.004 5.1e-4,0.001 5.2e-4,5.1e-4 5.2e-4,5.2e-4 0.001,0.001 5.2e-4,5.2e-4 h 5.1e-4 l 10e-4,-5.2e-4 0.002,-5.1e-4 0.006,-0.003 0.008,-0.004 0.0103,-0.005 0.0258,-0.0145 0.032,-0.0196 0.0377,-0.0233 0.0419,-0.0269 0.0444,-0.0295 0.047,-0.0315 0.0811,-0.0574 0.0791,-0.0599 0.0765,-0.062 0.0744,-0.0646 0.0723,-0.0662 0.0693,-0.0682 0.0672,-0.0703 0.0636,-0.0713 0.0615,-0.0734 0.0579,-0.0744 0.0548,-0.076 0.0517,-0.0765 0.0481,-0.0775 0.0444,-0.0786 0.0408,-0.0791 0.0372,-0.0796 0.0589,-0.14728 0.0491,-0.15451 0.0393,-0.15968 0.03,-0.16537 0.0207,-0.1695 0.0114,-0.17363 0.002,-0.17673 -0.008,-0.1788 -0.0165,-0.18087 -0.0263,-0.18139 -0.0351,-0.18138 -0.0444,-0.18087 -0.0537,-0.17983 -0.0625,-0.17725 -0.0713,-0.17518 -0.0806,-0.17105 -0.0723,-0.13953 -0.0801,-0.14211 -0.091,-0.15038 -0.10645,-0.16485 -0.12558,-0.185 -0.14882,-0.21187 -0.1757,-0.24391 -0.20671,-0.28216 -0.38861,-0.53485 -0.32918,-0.4718 -0.27646,-0.41807 -0.22738,-0.37362 -0.0977,-0.17311 -0.0873,-0.16537 -0.0775,-0.15864 -0.0687,-0.15297 -0.0615,-0.14882 -0.0532,-0.14573 -0.047,-0.14366 -0.0408,-0.14315 z m -1.2578,4.0597 -0.0357,0.21084 -0.006,0.0341 -0.004,0.0305 -0.003,0.0274 -0.001,0.0243 5.1e-4,0.0103 5.2e-4,0.0103 0.001,0.0103 0.001,0.0103 0.003,0.008 0.003,0.008 0.003,0.008 0.004,0.006 0.004,0.006 0.006,0.006 0.006,0.006 0.006,0.006 0.008,0.006 0.008,0.006 0.0103,0.006 0.0103,0.006 0.0222,0.0103 0.0258,0.01 0.0295,0.0103 0.0331,0.0129 0.20619,0.0739 -0.1912,0.0346 -0.0289,0.006 -0.0264,0.006 -0.0232,0.006 -0.01,0.004 -0.0103,0.004 -0.0103,0.004 -0.0103,0.004 -0.008,0.004 -0.008,0.006 -0.006,0.006 -0.006,0.006 -0.006,0.006 -0.006,0.006 -0.006,0.006 -0.006,0.008 -0.004,0.008 -0.004,0.008 -0.004,0.01 -0.004,0.0103 -0.003,0.0103 -0.003,0.0103 -0.006,0.0243 -0.004,0.0274 -0.004,0.0305 -0.004,0.0341 -0.0217,0.22273 -0.0956,-0.1819 -0.0145,-0.0284 -0.014,-0.0248 -0.015,-0.0217 -0.006,-0.0103 -0.006,-0.0103 -0.006,-0.008 -0.006,-0.008 -0.006,-0.006 -0.006,-0.006 -0.006,-0.006 -0.006,-0.006 -0.006,-0.004 -0.008,-0.004 -0.008,-0.004 -0.008,-0.003 -0.008,-0.003 -0.008,-0.001 -0.0103,-0.001 -0.0103,-0.001 -0.0103,-5.2e-4 h -0.0103 l -0.0103,5.2e-4 -0.01,0.001 -0.0253,0.003 -0.0279,0.004 -0.0305,0.006 -0.19689,0.0434 0.13488,-0.14262 0.0165,-0.0186 0.0134,-0.016 0.0145,-0.016 0.0129,-0.0165 0.0103,-0.0145 0.008,-0.0139 0.006,-0.0145 0.006,-0.0129 0.004,-0.0129 0.001,-0.006 0.001,-0.006 5.2e-4,-0.006 5.1e-4,-0.006 v -0.006 l -0.001,-0.004 -5.2e-4,-0.004 -0.001,-0.004 -0.001,-0.004 -0.003,-0.004 -0.003,-0.004 -0.003,-0.003 -0.003,-0.003 -0.004,-0.003 -0.006,-0.006 -0.008,-0.006 -0.008,-0.006 -0.008,-0.008 -0.008,-0.01 -0.0103,-0.0103 -0.01,-0.0103 -0.0103,-0.0103 -0.0103,-0.0129 -0.0103,-0.0129 -0.0103,-0.0129 -0.0103,-0.0129 -0.008,-0.014 -0.008,-0.0145 -0.008,-0.0145 -0.006,-0.014 -0.0103,-0.0222 -0.01,-0.0181 -0.008,-0.0165 -0.006,-0.0145 -5.2e-4,-0.006 -0.001,-0.006 -10e-4,-0.004 v -0.004 l 5.1e-4,-0.003 0.001,-0.003 0.001,-0.001 0.003,-0.001 0.003,-5.2e-4 0.004,5.2e-4 0.006,5.1e-4 0.006,0.001 0.006,0.003 0.006,0.003 0.016,0.006 0.0207,0.0103 0.0248,0.0124 0.061,0.031 0.0331,0.0165 0.0284,0.0139 0.0258,0.0129 0.0233,0.0103 0.0103,0.004 0.0103,0.003 0.0103,0.003 0.0103,5.2e-4 0.008,0.001 h 0.008 l 0.008,-5.1e-4 0.008,-0.001 0.008,-0.003 0.008,-0.003 0.008,-0.004 0.008,-0.004 0.008,-0.006 0.008,-0.006 0.008,-0.006 0.008,-0.008 0.0181,-0.0181 0.0186,-0.0222 0.0212,-0.0263 0.0238,-0.0295 z" />
  </g>
</svg>
