<?xml version="1.0" encoding="UTF-8" standalone="no"?>
<!-- Created with Inkscape (http://www.inkscape.org/) -->

<svg
   width="210mm"
   height="297mm"
   viewBox="0 0 210 297"
   version="1.1"
   id="svg1"
   inkscape:version="1.4.3 (0d15f750, 2025-12-25)"
   sodipodi:docname="Guillotine There U Glow Laser85.svg"
   xmlns:inkscape="http://www.inkscape.org/namespaces/inkscape"
   xmlns:sodipodi="http://sodipodi.sourceforge.net/DTD/sodipodi-0.dtd"
   xmlns="http://www.w3.org/2000/svg"
   xmlns:svg="http://www.w3.org/2000/svg">
  <sodipodi:namedview
     id="namedview1"
     pagecolor="#ffffff"
     bordercolor="#000000"
     borderopacity="0.25"
     inkscape:showpageshadow="2"
     inkscape:pageopacity="0.0"
     inkscape:pagecheckerboard="0"
     inkscape:deskcolor="#d1d1d1"
     inkscape:document-units="mm"
     inkscape:zoom="2.7243105"
     inkscape:cx="354.9522"
     inkscape:cy="585.28571"
     inkscape:window-width="1728"
     inkscape:window-height="966"
     inkscape:window-x="1920"
     inkscape:window-y="33"
     inkscape:window-maximized="0"
     inkscape:current-layer="layer1" />
  <defs
     id="defs1" />
  <g
     inkscape:label="Layer 1"
     inkscape:groupmode="layer"
     id="layer1">
    <g
       id="text6"
       style="font-size:2.20695px;line-height:0.95;font-family:'Cyborg Punk';-inkscape-font-specification:'Cyborg Punk';text-align:center;letter-spacing:0px;word-spacing:0px;text-anchor:middle;fill:#ff0000;stroke-width:0.0331044"
       aria-label="THERE&#10;U&#10;GLOW"
       transform="matrix(-1,0,0,1,481.5852,95.58043)">
      <path
         style="font-family:lazer84;-inkscape-font-specification:lazer84"
         d="m 379.00328,64.227911 0.19289,0.0097 h 0.19289 q 0.056,0 0.0819,0.05172 l -0.0108,0.0097 q 0.0507,0.0032 0.0507,0.03017 v 0.01078 h -0.11099 v 0.0097 h 0.0399 v 0.02047 h -0.0194 l 0.01,0.01078 -0.01,0.0097 v 0.02047 l 0.0507,0.0097 v 0.01078 l -0.0108,0.0097 v 0.01078 q 0.0614,0 0.0614,0.08082 0.041,0.0054 0.041,0.03017 v 0.02047 l -0.60023,0.07112 q -0.0765,0 -0.12177,0.192892 -0.53665,1.045284 -0.64118,1.331929 -0.0614,0.06142 -0.1013,0.06142 l -0.041,-0.04095 q -0.0603,0 -0.0603,-0.05065 l -0.0108,0.01078 h -0.01 q -0.002,-0.02586 -0.10129,-0.0916 l -0.0313,-0.05172 q 0,-0.204747 0.48816,-1.087311 l 0.0819,-0.192893 -0.37716,0.06035 q -0.21337,0 -0.28449,-0.192893 l -0.0302,-0.12177 v -0.02048 q 0,-0.06466 0.0808,-0.12177 h 0.13254 q 0.31898,0 1.06792,-0.112072 z m 0.97739,0.04957 q 0.14548,0 0.31359,0.241386 0,0.08513 -0.15195,0.353456 l -0.0905,0.201514 h 0.0205 l 0.61531,-0.161642 q 0.13794,-0.353457 0.29204,-0.60454 l 0.10129,-0.03017 q 0.11207,0.0032 0.28234,0.191815 v 0.06035 q 0,0.0722 -0.20152,0.382552 -0.0614,0.154099 -0.0614,0.21229 l 0.0302,0.03017 v 0.02047 l -0.12069,0.06035 q 0,0.03017 -0.0399,0.03017 v 0.0097 l 0.01,0.01078 v 0.0097 q -0.0172,0 -0.0302,0.06035 -0.0259,0 -0.0711,0.110994 h -0.01 l -0.01,-0.0097 h -0.0108 q 0,0.08405 -0.10022,0.100218 l 0.01,0.01078 v 0.02048 q -0.0302,0 -0.0302,0.03017 h -0.0205 l -0.01,0.03987 0.01,0.0097 v 0.02048 h -0.01 l -0.0302,-0.0097 v 0.03017 h -0.01 l 0.01,0.0097 v 0.01078 q -0.0808,0.07867 -0.111,0.252161 0,0.04849 -0.0603,0.130391 h -0.0108 l -0.01,-0.0097 h -0.01 l -0.0302,0.03017 q 0,-0.02047 -0.11099,-0.03017 l -0.0108,-0.04095 -0.01,0.01078 h -0.01 q -0.0302,-0.03664 -0.0302,-0.08082 0,-0.18966 0.17134,-0.524798 l 0.0496,-0.120692 h -0.01 l -0.71553,0.181039 q -0.0237,0.06142 -0.041,0.06142 l -0.01,-0.01078 h -0.0108 q -0.07,0.07974 -0.14117,0.312508 l -0.13039,0.202591 h -0.0108 v -0.02047 l -0.0399,0.03017 -0.14117,-0.05065 q 0,-0.05065 -0.0507,-0.05065 v -0.06035 q 0,-0.115305 0.21229,-0.514021 l 0.01,-0.05065 q -0.0302,-0.0097 -0.0302,-0.06035 v -0.08082 q 0.16811,-0.08729 0.19181,-0.182117 l 0.21122,-0.504322 -0.01,-0.0097 v -0.0097 l 0.0905,-0.201514 z m 2.39661,0.03987 q 0,0.03664 0.0366,0.03664 v 0.01832 h -0.028 v 0.0097 q 0.0463,0 0.0463,0.01832 v 0.0097 h -0.0366 q 0,0.02802 0.055,0.02802 v 0.01832 h -0.028 v 0.0086 h 0.11099 l 0.0841,0.04634 -0.01,0.0097 v 0.0086 q 0.0463,0 0.0463,0.0194 0,0.03341 -0.34268,0.07328 -0.11639,0 -0.4429,0.129314 l -0.10238,0.203669 h 0.01 q 0.0496,-0.01832 0.28665,-0.02802 l 0.0183,0.02802 -0.028,0.0097 v 0.0086 q 0.0744,0 0.0744,0.01832 l -0.0463,0.0194 v 0.0086 h 0.0183 l -0.009,0.02802 q 0,0.04634 0.0733,0.07435 v 0.0086 l -0.009,0.0097 v 0.0086 q 0.0463,0 0.0463,0.0194 v 0.0086 q 0,0.02802 -0.58299,0.147633 -0.0722,0 -0.18535,0.278024 l 0.66597,-0.110995 v 0.01832 h 0.01 l 0.0463,-0.0097 q 0.0119,0.04634 0.0463,0.04634 v 0.02802 q -0.0226,0 -0.0463,0.02802 h -0.0194 v 0.0086 h 0.056 v 0.0194 h -0.0463 l 0.01,0.0086 v 0.0097 l -0.01,0.0086 q 0.13686,0 0.14764,0.04634 l -0.009,0.0097 q 0.0463,0.0065 0.0463,0.02802 -0.0819,0.0528 -0.55497,0.137934 -0.55497,0.09375 -0.55497,0.16703 -0.0129,0.04849 -0.083,0.08298 h -0.01 l -0.055,-0.04634 h -0.0194 l -0.0463,0.0097 q 0,-0.02371 -0.0916,-0.04634 l -0.028,0.0086 -0.01,-0.0086 v -0.0097 l 0.01,-0.02802 h -0.0183 l -0.01,0.0097 h -0.009 l -0.01,-0.0097 v -0.0086 q 0.0765,-0.274791 0.68429,-1.553916 0,-0.09267 0.12931,-0.110994 l 0.361,0.0097 z m 0.84161,-0.06573 h 0.0841 q 0.62825,0 0.7414,0.412725 l 0.01,0.05711 v 0.02802 q 0,0.123925 -0.56359,0.412725 0.14117,0.598075 0.14117,0.83515 l 0.01,0.0097 v 0.0086 l -0.01,0.0291 0.01,0.08405 -0.01,0.0097 h -0.0183 q 0,-0.03772 -0.0194,-0.03772 0,0.02802 -0.0183,0.02802 h -0.0194 l -0.009,-0.0097 h -0.01 q -0.014,0.03772 -0.028,0.03772 l -0.0474,-0.0097 -0.0183,0.0194 q -0.006,-0.04741 -0.0474,-0.04741 -0.14979,-0.349147 -0.26186,-0.807132 l -0.42242,0.141167 q -0.0582,0.132547 -0.0938,0.149789 l -0.01,0.04742 h -0.028 l 0.0377,-0.103451 v -0.0097 h -0.01 l -0.0474,0.103451 0.0194,0.0194 q -0.0356,0 -0.14117,0.196125 -0.0129,0.0011 -0.056,0.122848 -0.0194,0 -0.0938,0.187505 h -0.01 q 0,-0.0431 -0.0937,-0.07543 l -0.0183,0.0194 q 0,-0.0194 -0.0291,-0.0194 l -0.028,0.0097 q -0.0205,-0.05065 -0.056,-0.05604 v -0.0291 q 0,-0.227376 0.51618,-1.257573 -0.1972,-0.133624 -0.1972,-0.215523 v -0.04634 q 0.008,-0.04957 0.34699,-0.169185 0.0474,-0.07543 0.49785,-0.07543 z m -0.30065,0.741397 h 0.0194 q 0.56359,-0.241385 0.68428,-0.384708 v -0.0097 l -0.1875,-0.0086 h -0.0183 q -0.35669,0 -0.35669,0.08405 -0.111,0.283412 -0.14117,0.318973 z m 2.08195,-0.675663 q 0,0.03664 0.0366,0.03664 v 0.01832 h -0.028 v 0.0097 q 0.0463,0 0.0463,0.01832 v 0.0097 h -0.0366 q 0,0.02802 0.055,0.02802 v 0.01832 h -0.028 v 0.0086 h 0.11099 l 0.0841,0.04634 -0.01,0.0097 v 0.0086 q 0.0463,0 0.0463,0.0194 0,0.03341 -0.34268,0.07328 -0.11638,0 -0.44289,0.129314 l -0.10238,0.203669 h 0.01 q 0.0496,-0.01832 0.28665,-0.02802 l 0.0183,0.02802 -0.028,0.0097 v 0.0086 q 0.0743,0 0.0743,0.01832 l -0.0463,0.0194 v 0.0086 h 0.0183 l -0.009,0.02802 q 0,0.04634 0.0733,0.07435 v 0.0086 l -0.009,0.0097 v 0.0086 q 0.0463,0 0.0463,0.0194 v 0.0086 q 0,0.02802 -0.58299,0.147633 -0.0722,0 -0.18535,0.278024 l 0.66596,-0.110995 v 0.01832 h 0.01 l 0.0463,-0.0097 q 0.0118,0.04634 0.0463,0.04634 v 0.02802 q -0.0226,0 -0.0463,0.02802 h -0.0194 v 0.0086 h 0.056 v 0.0194 h -0.0463 l 0.01,0.0086 v 0.0097 l -0.01,0.0086 q 0.13686,0 0.14763,0.04634 l -0.009,0.0097 q 0.0463,0.0065 0.0463,0.02802 -0.0819,0.0528 -0.55497,0.137934 -0.55497,0.09375 -0.55497,0.16703 -0.0129,0.04849 -0.083,0.08298 h -0.01 l -0.055,-0.04634 h -0.0194 l -0.0463,0.0097 q 0,-0.02371 -0.0916,-0.04634 l -0.028,0.0086 -0.01,-0.0086 v -0.0097 l 0.01,-0.02802 h -0.0183 l -0.01,0.0097 h -0.009 l -0.01,-0.0097 v -0.0086 q 0.0765,-0.274791 0.68428,-1.553916 0,-0.09267 0.12932,-0.110994 l 0.361,0.0097 z"
         id="path171" />
      <path
         style="font-family:lazer84;-inkscape-font-specification:lazer84"
         d="m 381.18921,66.383671 h 0.0474 q 0.14979,0 0.24461,0.159487 l 0.009,0.03772 q 0,0.07867 -0.20691,0.470917 -0.2166,0.425657 -0.2166,0.780191 V 67.86 q 0.24354,-0.158409 0.39549,-0.385785 0.35777,-0.45583 0.4235,-0.658421 l 0.056,-0.12177 q 0.028,0 0.028,-0.02802 l 0.01,-0.0097 h 0.0194 v 0.03772 h 0.009 q 0.0259,-0.159487 0.0474,-0.159487 h 0.01 v 0.03772 h 0.009 v -0.07543 h 0.0194 v 0.02802 q 0.0334,-0.01724 0.0841,-0.141168 h 0.01 q 0.0938,0.08729 0.0938,0.272636 0,0.620705 -0.79852,1.410595 -0.15302,0.09483 -0.34806,0.09483 -0.361,0 -0.48062,-0.264015 l -0.0183,-0.11315 v -0.04634 q 0,-0.370699 0.15087,-0.658421 l 0.24462,-0.574367 q 0.0797,-0.121771 0.15948,-0.121771 z"
         id="path172" />
      <path
         style="font-family:lazer84;-inkscape-font-specification:lazer84"
         d="m 379.43701,68.538354 h 0.0313 q 0.27155,0 0.37716,0.234919 -0.0248,0.214445 -0.0711,0.214445 h -0.0108 q -0.0636,0 -0.21444,-0.06142 l -0.20367,-0.02047 q -0.55713,0 -0.9386,0.459063 -0.1638,0.221988 -0.1638,0.479537 0,0.143322 0.21444,0.143322 0.12932,0 0.36747,-0.0819 v -0.0097 h -0.0108 l -0.29526,0.02047 q 0,-0.02802 -0.0819,-0.0722 l 0.01,-0.0097 v -0.01078 h -0.0603 v -0.02047 l 0.0603,-0.0097 v -0.0097 l -0.0808,-0.01078 v -0.02047 h 0.0302 v -0.0097 h -0.0507 v -0.01078 l 0.0205,-0.03017 q -0.0722,0 -0.0722,-0.02047 0,-0.06789 1.25542,-0.285568 0.11746,0 0.17349,0.142245 l 0.0108,0.03125 q 0,0.105606 -0.14332,0.224143 0,0.100218 -0.50972,0.408415 -0.23923,0.132547 -0.46983,0.132547 h -0.0916 q -0.45799,0 -0.61316,-0.469839 l -0.01,-0.0916 v -0.06142 q 0,-0.368544 0.57113,-0.887953 0.42243,-0.285567 0.96985,-0.285567 z m 1.03559,-0.14009 h 0.0571 q 0.25001,0.0916 0.25001,0.240308 -0.0647,0.105606 -0.51833,1.083 l -0.0765,0.134702 0.59484,-0.03879 0.0765,0.0097 h 0.0571 v 0.0194 h -0.028 v 0.0291 h 0.0571 v 0.0194 l -0.0959,0.04742 0.0194,0.05711 h 0.0571 l 0.0862,0.08729 q 0,0.02586 -0.56575,0.104528 -0.23923,0.04849 -0.65195,0.163797 h -0.01 q -0.0528,0 -0.18212,-0.154098 v -0.0097 l 0.01,-0.0086 -0.01,-0.0097 v -0.09591 q 0,-0.04849 0.0862,-0.115304 0.4526,-0.837305 0.65196,-1.419216 l -0.01,-0.02909 q 0.0604,-0.115305 0.1444,-0.115305 z m 1.83086,0.08405 h 0.0108 q 0.10237,0 0.2069,0.197203 l 0.0108,0.01078 v 0.04849 q 0,0.04634 -0.15518,0.07974 v 0.0097 q 0.23815,0.295265 0.23815,0.552815 v 0.04957 q 0,0.637946 -0.54958,0.820063 -0.1875,0.04957 -0.31035,0.04957 h -0.11423 q -0.48277,0 -0.69506,-0.493546 -0.0302,-0.0065 -0.041,-0.177806 v -0.07005 q 0,-0.47846 0.69398,-0.868556 0.43859,-0.207979 0.70476,-0.207979 z m -1.01511,1.165977 v 0.0097 q 0,0.17134 0.21768,0.197203 h 0.083 q 0.33513,0 0.62178,-0.384707 0.0442,-0.101296 0.0614,-0.267248 -0.01,-0.137935 -0.0302,-0.168108 l 0.01,-0.02909 q -0.028,-0.148711 -0.041,-0.148711 -0.30497,0.04095 -0.70476,0.395484 -0.21768,0.211212 -0.21768,0.395484 z m 3.33521,-1.296368 0.01,0.0097 v 0.0097 l 0.0291,-0.0097 q 0.0399,0.0097 0.0399,0.03879 h 0.01 l 0.01,-0.0291 q 0.13578,0.0291 0.13578,0.04849 l -0.01,0.03017 0.01,-0.0097 h 0.01 l 0.0291,0.0097 v 0.0097 q 0,0.07112 -0.43751,0.748941 l -0.47738,0.827606 -0.0776,0.165952 q -0.0776,0.05819 -0.13686,0.05819 -0.24354,-0.0528 -0.24354,-0.106683 -0.13578,-0.11746 -0.13578,-0.467684 -0.15733,0.173496 -0.25324,0.37932 -0.07,0.185349 -0.20474,0.185349 -0.0625,0 -0.11639,-0.03879 l -0.01,0.0097 h -0.01 q -0.0183,0 -0.0582,-0.04849 -0.0711,0 -0.12716,-0.467684 -0.0194,-0.132546 -0.0194,-0.574367 l 0.0194,-0.516177 q 0,-0.08082 0.17565,-0.106683 0.12823,0.02047 0.21337,0.116382 l 0.0205,0.05819 v 0.06897 l -0.0399,0.369621 v 0.135779 l 0.01,0.05927 -0.01,0.04849 0.01,0.0097 -0.01,0.04849 v 0.03879 l 0.01,0.03879 -0.01,0.03879 v 0.04957 l 0.39009,-0.448287 q 0.0226,0 0.0485,-0.233842 l 0.0582,-0.0194 0.0194,-0.0194 0.0679,0.0097 h 0.0302 l 0.0679,-0.0097 0.01,0.0097 v 0.0097 l -0.01,0.0097 0.0485,0.0097 h 0.01 l 0.0291,-0.0194 h 0.01 l 0.01,0.0097 0.01,-0.0097 h 0.0485 l 0.0399,0.04849 q 0.0291,0 0.0291,0.0194 l -0.10776,0.262937 -0.0194,0.11746 v 0.174573 l -0.01,0.0097 0.01,0.09806 h 0.01 q 0.15302,-0.250006 0.361,-0.516176 0.0194,-0.06789 0.0582,-0.06789 l -0.01,-0.0097 v -0.0097 q 0.19182,-0.317896 0.23384,-0.341604 0,-0.03879 0.11639,-0.232764 0,-0.05388 0.0873,-0.08836 z m -0.24354,0.438588 v 0.0097 l 0.0194,-0.0194 v -0.0097 z m -0.0679,0.08729 v 0.02909 h 0.01 v -0.02909 z"
         id="path173" />
    </g>
  </g>
</svg>
